<?xml version="1.0" encoding="utf-8"?>
<svg version="1.1" xmlns:xlink="http://www.w3.org/1999/xlink" width="25px" height="25px" xmlns="http://www.w3.org/2000/svg">
  <g transform="matrix(1 0 0 1 -769 -426 )">
    <path d="M 781.5 427  C 787.94 427  793 432.06  793 438.5  C 793 444.94  787.94 450  781.5 450  C 775.06 450  770 444.94  770 438.5  C 770 432.06  775.06 427  781.5 427  Z " fill-rule="nonzero" fill="#ffffff" stroke="none" fill-opacity="0" />
    <path d="M 781.5 427  C 787.94 427  793 432.06  793 438.5  C 793 444.94  787.94 450  781.5 450  C 775.06 450  770 444.94  770 438.5  C 770 432.06  775.06 427  781.5 427  Z " stroke-width="2" stroke="#4d4d55" fill="none" />
  </g>
</svg>