<?xml version="1.0" encoding="utf-8"?>
<svg version="1.1" xmlns:xlink="http://www.w3.org/1999/xlink" width="12px" height="12px" xmlns="http://www.w3.org/2000/svg">
  <g transform="matrix(1 0 0 1 -254 -248 )">
    <path d="M 260 248  C 263.36 248  266 250.64  266 254  C 266 257.36  263.36 260  260 260  C 256.64 260  254 257.36  254 254  C 254 250.64  256.64 248  260 248  Z " fill-rule="nonzero" fill="#ffffff" stroke="none" />
    <path d="M 260 248.5  C 263.08 248.5  265.5 250.92  265.5 254  C 265.5 257.08  263.08 259.5  260 259.5  C 256.92 259.5  254.5 257.08  254.5 254  C 254.5 250.92  256.92 248.5  260 248.5  Z " stroke-width="1" stroke="#797979" fill="none" />
  </g>
</svg>