<?xml version="1.0" encoding="utf-8"?>
<svg version="1.1" xmlns:xlink="http://www.w3.org/1999/xlink" width="207px" height="207px" xmlns="http://www.w3.org/2000/svg">
  <g transform="matrix(1 0 0 1 -610 -250 )">
    <path d="M 713.5 252  C 770.34 252  815 296.66  815 353.5  C 815 410.34  770.34 455  713.5 455  C 656.66 455  612 410.34  612 353.5  C 612 296.66  656.66 252  713.5 252  Z " fill-rule="nonzero" fill="#ffffff" stroke="none" />
    <path d="M 713.5 251.5  C 770.62 251.5  815.5 296.38  815.5 353.5  C 815.5 410.62  770.62 455.5  713.5 455.5  C 656.38 455.5  611.5 410.62  611.5 353.5  C 611.5 296.38  656.38 251.5  713.5 251.5  Z " stroke-width="3" stroke="#797979" fill="none" />
  </g>
</svg>