<?xml version="1.0" encoding="utf-8"?>
<svg version="1.1" xmlns:xlink="http://www.w3.org/1999/xlink" width="73px" height="73px" xmlns="http://www.w3.org/2000/svg">
  <g transform="matrix(1 0 0 1 -677 -317 )">
    <path d="M 713.5 319  C 732.82 319  748 334.18  748 353.5  C 748 372.82  732.82 388  713.5 388  C 694.18 388  679 372.82  679 353.5  C 679 334.18  694.18 319  713.5 319  Z " fill-rule="nonzero" fill="#ffffff" stroke="none" />
    <path d="M 713.5 318.5  C 733.1 318.5  748.5 333.9  748.5 353.5  C 748.5 373.1  733.1 388.5  713.5 388.5  C 693.9 388.5  678.5 373.1  678.5 353.5  C 678.5 333.9  693.9 318.5  713.5 318.5  Z " stroke-width="3" stroke="#797979" fill="none" />
  </g>
</svg>